<?xml version="1.0" encoding="UTF-8"?>
<svg xmlns="http://www.w3.org/2000/svg" viewBox="0 0 26 26" fill="none">
  <path
    fill="#F35928"
    d="M11.969 25.771a2.027 2.027 0 0 1-2.027-2.027v-7a2.027 2.027 0 0 1 2.027-2.027h1.3a2.027 2.027 0 0 1 2.027 2.027v3.667h2.677a1.907 1.907 0 0 0 1.908-1.907V2.027A2.027 2.027 0 0 1 21.911 0h1.3a2.027 2.027 0 0 1 2.027 2.027V18.942a6.829 6.829 0 0 1-6.829 6.829Zm-9.942 0A2.027 2.027 0 0 1 0 23.744V6.829A6.829 6.829 0 0 1 6.829 0h6.443A2.027 2.027 0 0 1 15.3 2.027v7a2.027 2.027 0 0 1-2.027 2.027h-1.3A2.027 2.027 0 0 1 9.942 9.024V5.357H7.259a1.907 1.907 0 0 0-1.9 1.907v16.48A2.027 2.027 0 0 1 3.33 25.771Z"
  />
</svg>
