<?xml version="1.0" encoding="UTF-8"?>
<svg xmlns="http://www.w3.org/2000/svg" viewBox="0 0 123 123" fill="none">
  <path
    fill="#42C9E8"
    d="m61.02 104.42-.61-.03c-23.12-.42-41.89-19.52-41.89-42.58 0-20.96 15.5-38.65 35.65-42.02-5.38-5.66-11.8-10.29-18.86-13.54C28.08 9.32 0 23.79 0 61.81c0 33.72 27.43 61.15 61.14 61.15 6.39-.05 12.5-1 18.34-2.85-7-4.05-13.28-9.38-18.46-15.68Z"
  />
  <path
    fill="#FB0000"
    d="m61.9 18.53.61.03c23.12.42 41.89 19.52 41.89 42.58 0 20.96-15.5 38.65-35.65 42.02 5.38 5.66 11.8 10.29 18.86 13.54 7.24-3.06 35.32-17.53 35.32-55.56C122.92 27.43 95.49 0 61.78 0c-6.39.05-12.5 1-18.34 2.85 7 4.05 13.28 9.38 18.46 15.68Z"
  />
</svg>
