<?xml version="1.0" encoding="UTF-8"?>
<svg xmlns="http://www.w3.org/2000/svg" viewBox="0 0 62 79">
  <path fill="#3091cf" fill-rule="evenodd" d="M34.44,59.18l5.09,5.95,5.88-5.15,5.76-5.04c6.19-5.45,9.99-13.15,10.58-21.42.59-8.27-2.08-16.45-7.43-22.74C48.93,4.52,41.32.68,33.14.08c-8.18-.6-16.26,2.11-22.48,7.52C4.47,13.04.67,20.75.08,29.02c-.59,8.27,2.08,16.45,7.43,22.74l20.31,23.74c1.81,2.12,3.72,4.42,6.67,1.97l.09-.07.09-.08c2.82-2.61.85-4.84-.97-6.97l-1.27-1.48-19.04-22.27c-4-4.71-6-10.83-5.55-17.02.44-6.19,3.29-11.96,7.91-16.04,4.66-4.05,10.71-6.06,16.83-5.62,6.12.45,11.82,3.32,15.86,8,4,4.71,6,10.83,5.56,17.02-.44,6.19-3.29,11.96-7.91,16.04l-5.76,5.04-5.09-5.95-5.09-5.95-4.98-5.82c-1.3-1.55-1.95-3.56-1.8-5.59.15-2.03,1.07-3.92,2.58-5.27,1.54-1.32,3.52-1.97,5.53-1.82,2.01.15,3.88,1.08,5.21,2.61,1.11,1.32,1.75,2.98,1.82,4.71.07,1.73-.43,3.44-1.42,4.85-.05.07-.09.13-.14.19-.51.74-.75,1.62-.71,2.52.05.9.38,1.75.96,2.43,2.56,2.99,5.38.93,6.88-1.6,1.67-2.82,2.43-6.1,2.16-9.38-.27-3.28-1.55-6.38-3.67-8.88-2.68-3.1-6.47-5.01-10.53-5.31-4.07-.3-8.08,1.04-11.18,3.72-3.07,2.71-4.95,6.54-5.25,10.66-.29,4.11,1.03,8.17,3.68,11.31l4.98,5.82,5.09,5.94,5.09,5.95h0Z"/>
</svg>
