<?xml version="1.0" encoding="UTF-8"?>
<svg xmlns="http://www.w3.org/2000/svg" viewBox="3 5 148 128" fill="none">
  <path
    fill="#3094C2"
    d="M78.29 24.87c-.31-.44 4.45-5.19 4.79-5.53 3.79-3.95 8.25-7.19 13.18-9.57 11.3-5.22 27.22-3.89 37.7 2.8 19.19 12.15 17.92 37.44 7.35 54.84h-30.58s-3.66-9.77-6.08-14.59c-.81-1.65-2.67-6.59-4.36-3.08s-3.15 6.59-4.63 10c-3.59 8.05-6.95 16.29-10.54 24.34-.33.79-1.05 1.65-1.83 1.37-.37-.25-.63-.63-.71-1.07-4.94-15.88-9.35-31.92-14.28-47.76l-.94-2.95c-.33-1-1.28-6.69-3.29-5.8-.42.22-.76.58-.96 1.02-.39.71-.73 1.46-1 2.22-1.4 3.59-2.72 7.21-4.08 10.82-1.12 2.95-2.19 5.91-3.29 8.88-1.73 4.78-3.39 9.59-5.2 14.33-.08.21-.69 2.31-.99 2.31H14.53c-.58 0-2.4-4-2.65-4.45-1.64-2.85-3.04-5.84-4.18-8.93-2.23-6.63-2.5-13.76-.79-20.54 1.63-7.24 5.7-13.7 11.53-18.3 6.11-4.53 13.34-7.31 20.92-8.05 15.15-1.18 29.85 5.5 38.93 17.69"
  />
  <path
    fill="#069"
    d="M22.95 78.49h32.79c1.38-5.29 2.9-10.52 4.48-15.75.76-2.45 1.52-4.94 2.29-7.36.17-.42.55-.72 1-.79.46 0 .88.26 1.1.66 1.65 5.2 9.88 34.21 9.88 34.21 1.43 4.48 2.88 8.96 4.5 13.39.69 1.93 2.4 7.2 3.39 7.2s2.59-4.12 2.98-4.94c1.76-3.64 3.29-7.39 4.83-11.15 2.85-6.98 6.24-14.02 8.83-21.1.48-1.48 1.1-2.91 1.84-4.27.16-.38.47-.66.86-.79.61-.1 1.4.89 1.65 1.47l3.15 8.73 25.05.44s-19.09 20.44-25.28 26.65c-6.19 6.21-25.71 25.28-28 25.28s-24.7-21.74-27.42-24.38-28-27.49-28-27.49"
  />
</svg>
