<?xml version="1.0" encoding="UTF-8"?>
<svg xmlns="http://www.w3.org/2000/svg" viewBox="0 0 81 52" fill="none">
  <path
    fill="#3498FB"
    d="M15.1946 50.8083c-.2588.0004-.5151-.0509-.7533-.151-.2383-.1-.4536-.2465-.6331-.4309-.0867-.1-10.01931-11.6245-13.7778836-32.4315-.0577541-.3182-.03271525-.6457.07276175-.9517.10547705-.3061.28792845-.5805.53019885-.7977C6.30182 11.0259 12.7667 6.96233 19.7692 4.01762 31.8898-.980626 43.6565-1.31265 54.7481 3.00726c.7221.24634 7.7771 2.82401 14.4675 9.56094 6.3654 6.4263 13.554 17.9473 11.6476 36.4836-.0256.2492-.1006.491-.2207.7115-.1201.2205-.2829.4155-.4792.5738-.1963.1583-.4222.2768-.6649.3488-.2426.072-.4972.096-.7492.0707-.252-.0253-.4965-.0995-.7195-.2182-.223-.1188-.4202-.2798-.5803-.4739-.1601-.1941-.28-.4175-.3528-.6574-.0727-.2399-.0971-.4917-.0715-.7409 1.4009-13.6309-2.1122-24.8377-10.4453-33.3026-6.2824-6.36559-13.0738-8.74332-13.1424-8.76474l-.0794-.03214C43.2233 2.6074 32.4169 2.93586 21.2423 7.53781c-6.264 2.63669-12.07348 6.22379-17.21872 10.63199C7.68467 37.0703 16.3716 47.331 16.6352 47.6345c.2474.2748.409.6146.4655.9783.0564.3637.0052.7358-.1475 1.0713-.1527.3356-.4003.6203-.713.8198-.3127.1994-.6771.3052-1.0492.3044h.0036Z"
  />
  <path
    fill="#28283D"
    d="M39.7803 51.4359c-5.5606-.3195-10.7648-2.8041-14.4676-6.9074-3.7029-4.1032-5.6011-9.4888-5.2771-14.9721.324-5.4833 2.8437-10.6151 7.0047-14.2665 4.1611-3.6514 9.6226-5.52318 15.1832-5.20368.488.0287.9795.0718 1.4565.1329.298.0376.5685.1904.7522.4247.1837.2343.2655.531.2273.8242-.0381.2938-.193 0.5606-.4306.7417-.2377.1812-.5386.2619-.8366.2243-.4297-.0539-.8703-.097-1.3036-.1185-4.1915-.2398-8.3431.9163-11.7883 3.2827-3.4452 2.3664-5.984 5.8057-7.2087 9.7658-1.2248 3.9601-1.0646 8.2112.455 12.0707 1.5196 3.8595 4.3104 7.1034 7.9243 9.2111 3.6138 2.1076 7.841 2.9565 12.0029 2.4105 4.1619-.5461 8.017-2.4554 10.9462-5.4215 2.9293-2.966 4.7628-6.8167 5.2062-10.9338.4434-4.117-.5292-8.2615-2.7614-11.7681-.0791-.1242-.1327-.2626-.1576-.4073-.0249-.1447-.0206-.2927.0125-.4357.0331-.1431.0945-.2783.1807-.3979.0861-.1197.1953-.2214.3212-.2995.126-.078.2664-.1308.4131-.1553.1467-.0246.2968-.0204.4419.0123.1451.0326.2822.0931.4035.1781.1213.085.2245.1927.3036.3169 2.0508 3.2197 3.1629 6.9341 3.2142 10.7358.0514 3.8018-.9598 7.5441-2.9229 10.8165-1.963 3.2725-4.8019 5.9488-8.2055 7.7352-3.4036 1.7864-7.2403 2.6143-11.0894 2.3926v.0108Z"
  />
  <path
    fill="#28283D"
    d="M40.1448 44.8151c-3.8039-.2175-7.3643-1.9127-9.8977-4.7126-2.5334-2.7998-3.8324-6.475-3.6113-10.2171.2212-3.742 1.9444-7.2444 4.7906-9.7366 2.8462-2.4921 6.5822-3.77 10.3862-3.5525.1563.0091.3093.0485.4502.1158.1408.0673.2668.1613.3708.2765.104.1152.1838.2495.235.395.0513.1456.0728.2997.0635.4535-.0093.1538-.0493.3043-.1177.4428-.0685.1386-.164.2626-.2811.3648-.1171.1022-.2536.1808-.4016.2311-.148.0504-.3046.0716-.4609.0625-2.636-.1462-5.2473.5687-7.4275 2.0337-2.1802 1.465-3.8071 3.5978-4.6274 6.0665-.8204 2.4687-.7883 5.1349.0913 7.5838.8796 2.4489 2.5574 4.5431 4.7722 5.9568 2.2149 1.4138 4.8427 2.0677 7.4745 1.86 2.6318-.2076 5.12-1.2652 7.0776-3.0081 1.9575-1.7429 3.2745-4.0734 3.7462-6.6289.4717-2.5555.0714-5.1926-1.1384-7.5012-.0779-.1372-.127-.2884-.1444-.4446-.0174-.1562-.0027-.3142.0432-.4647.046-.1506.1222-.2904.2241-.4114.102-.121.2277-.2206.3695-.2929.1418-.0723.2969-.1158.4562-.1279.1593-.0121.3194.0073.4709.0572.1515.0499.2912.1292.4109.2333.1196.1042.2168.2309.2858.3725 1.1628 2.2171 1.7084 4.6975 1.5813 7.1892-.127 2.4916-.9221 4.9057-2.3045 6.9973-1.3824 2.0915-3.3028 3.7859-5.5663 4.9111-2.2635 1.1252-4.7894 1.641-7.3211 1.4951Z"
  />
  <path
    fill="#3498FB"
    d="M27.4176 46.5644c.0391-.6568.2753-1.2875.6787-1.8123.4034-.5247.9559-.92 1.5877-1.1358.6318-.2158 1.3145-.2425 1.9617-.0767.6472.1658 1.2298.5167 1.6744 1.0083.4445.4916.7308 1.1018.8227 1.7535.0919.6517-.0146 1.3155-.3062 1.9076-.2916.5921-.7551 1.0859-1.3319 1.4188-.5769.333-1.2411.4902-1.9088.4518-.4433-.0255-.8772-.1366-1.2768-.3271-.3997-.1905-.7573-.4565-1.0524-.7829-.2952-.3264-.5221-.7068-.6678-1.1195-.1457-.4126-.2073-.8495-.1813-1.2856Z"
  />
  <path
    fill="#3498FB"
    d="M27.4176 22.2047c.0391-.6568.2753-1.2874.6787-1.8122.4034-.5248.9559-.9201 1.5877-1.1359.6318-.2158 1.3145-.2425 1.9617-.0767.6472.1658 1.2298.5167 1.6744 1.0083.4445.4916.7308 1.1018.8227 1.7535.0919.6517-.0146 1.3155-.3062 1.9076-.2916.5921-.7551 1.0859-1.3319 1.4188-.5769.333-1.2411.4902-1.9088.4518-.4433-.0255-.8772-.1366-1.2768-.3271-.3997-.1905-.7573-.4565-1.0524-.7829-.2952-.3264-.5221-.7068-.6678-1.1195-.1457-.4126-.2073-.8495-.1813-1.2856v.0001Z"
  />
  <path
    fill="#3498FB"
    d="M48.4176 36.8209c.0391-.6568.2753-1.2874.6787-1.8122.4034-.5248.9559-.9201 1.5877-1.1359.6318-.2158 1.3145-.2425 1.9617-.0767.6472.1659 1.2298.5168 1.6744 1.0084.4445.4916.7308 1.1018.8227 1.7535.0919.6517-.0146 1.3155-.3062 1.9076-.2916.5921-.7551 1.0859-1.3319 1.4188-.5769.333-1.2411.4902-1.9088.4518-.4433-.0255-.8772-.1366-1.2768-.3271-.3997-.1905-.7573-.4565-1.0524-.7829-.2952-.3264-.5221-.7068-.6678-1.1195-.1457-.4126-.2073-.8495-.1813-1.2856Z"
  />
</svg>
